<svg xmlns="http://www.w3.org/2000/svg" xmlns:xlink="http://www.w3.org/1999/xlink" width="204" zoomAndPan="magnify" viewBox="0 0 153 153.000002" height="204" preserveAspectRatio="xMidYMid meet" version="1.0"><defs><g/><clipPath id="578d0312c9"><path d="M 2 6 L 151 6 L 151 150 L 2 150 Z M 2 6 " clip-rule="nonzero"/></clipPath><clipPath id="3b5c388b22"><path d="M 114.953125 -17.707031 L 174 115.871094 L 38.378906 175.820312 L -20.667969 42.242188 Z M 114.953125 -17.707031 " clip-rule="nonzero"/></clipPath><clipPath id="f83c5d2c2a"><path d="M 114.953125 -17.707031 L 174 115.871094 L 38.378906 175.820312 L -20.667969 42.242188 Z M 114.953125 -17.707031 " clip-rule="nonzero"/></clipPath><clipPath id="62be78c348"><path d="M 114.953125 -17.707031 L 174 115.871094 L 38.378906 175.820312 L -20.667969 42.242188 Z M 114.953125 -17.707031 " clip-rule="nonzero"/></clipPath><clipPath id="0124eb2390"><path d="M 6.949219 104.371094 C 2.628906 92.3125 1.492188 79.992188 3.5625 67.601562 C 4.476562 62.117188 5.46875 58.480469 7.480469 53.238281 C 10.445312 45.511719 13.855469 39.644531 19.0625 33.324219 C 24.703125 26.46875 30.796875 21.257812 38.738281 16.496094 C 41.023438 15.125 48.398438 11.71875 51.1875 10.742188 C 60.722656 7.40625 70.316406 5.984375 79.84375 6.503906 C 84.988281 6.785156 88.386719 7.234375 92.847656 8.230469 C 111.210938 12.328125 127.664062 23.515625 138.300781 39.132812 C 142.976562 45.996094 146.820312 54.414062 148.742188 61.980469 C 150.839844 70.242188 151.421875 78.214844 150.558594 86.800781 C 149.882812 93.53125 148.601562 98.964844 146.222656 105.171875 C 144.289062 110.222656 142.554688 113.71875 139.855469 118.003906 C 138.5 120.152344 136.347656 123.253906 136.914062 122.234375 C 137.414062 121.339844 137.40625 121.285156 136.886719 121.984375 C 134.554688 125.117188 131.046875 128.980469 127.601562 132.203125 C 126.800781 132.949219 126.148438 133.617188 126.148438 133.683594 C 126.148438 133.75 126.046875 133.808594 125.921875 133.816406 C 125.792969 133.820312 125.714844 133.890625 125.75 133.964844 C 125.8125 134.109375 124.410156 135.316406 124.140625 135.347656 C 123.871094 135.382812 122.433594 136.496094 122.492188 136.628906 C 122.519531 136.699219 122.476562 136.746094 122.394531 136.734375 C 122.308594 136.722656 121.730469 137.085938 121.109375 137.539062 C 119.769531 138.519531 116.765625 140.480469 114.332031 141.964844 C 112.914062 142.828125 111.675781 143.425781 107.765625 145.136719 C 105.113281 146.296875 102.453125 147.390625 101.855469 147.566406 L 100.765625 147.894531 L 101.953125 147.347656 C 102.605469 147.046875 103.148438 146.730469 103.160156 146.644531 C 103.179688 146.492188 102.640625 146.632812 100.738281 147.273438 C 99.523438 147.683594 94.636719 148.949219 94.027344 149.011719 C 93.660156 149.046875 93.777344 148.976562 94.546875 148.699219 C 97.402344 147.664062 99.347656 146.847656 99.605469 146.574219 C 99.882812 146.28125 99.882812 146.28125 99.566406 146.410156 C 99.390625 146.480469 98.785156 146.617188 98.222656 146.710938 L 97.195312 146.886719 L 99.683594 145.496094 C 101.050781 144.734375 102.191406 144.0625 102.214844 144 C 102.238281 143.941406 102.128906 143.945312 101.972656 144.015625 C 101.820312 144.082031 101.585938 144.085938 101.453125 144.019531 C 101.253906 143.917969 101.34375 143.820312 101.964844 143.457031 C 103.628906 142.484375 103.761719 142.382812 103.414062 142.304688 C 103.140625 142.242188 103.210938 142.167969 103.921875 141.757812 C 105.386719 140.910156 106.339844 140.242188 106.207031 140.148438 C 106.132812 140.097656 105.925781 140.125 105.746094 140.203125 C 105.34375 140.382812 105.070312 140.226562 105.359375 139.984375 C 105.476562 139.890625 105.988281 139.542969 106.492188 139.214844 C 106.996094 138.886719 107.445312 138.5 107.484375 138.355469 C 107.5625 138.082031 107.5625 138.082031 106.261719 138.390625 C 105.734375 138.511719 105.824219 138.441406 107 137.765625 C 107.734375 137.34375 108.359375 136.929688 108.390625 136.851562 C 108.417969 136.769531 108.355469 136.738281 108.246094 136.785156 C 108.109375 136.839844 108.105469 136.761719 108.230469 136.527344 C 108.398438 136.214844 108.363281 136.21875 107.738281 136.601562 C 107.367188 136.824219 106.902344 137.027344 106.703125 137.046875 C 106.390625 137.074219 106.425781 137.015625 106.953125 136.609375 C 107.527344 136.167969 107.429688 136.199219 105.417969 137.042969 C 104.171875 137.570312 103.515625 137.800781 103.855469 137.59375 C 104.171875 137.398438 104.355469 137.222656 104.257812 137.210938 C 103.914062 137.15625 103.152344 137.402344 100.441406 138.425781 C 98.320312 139.226562 93.484375 140.765625 93.289062 140.703125 C 93.269531 140.699219 94.429688 140.160156 95.867188 139.511719 C 97.839844 138.613281 98.484375 138.269531 98.507812 138.097656 C 98.550781 137.761719 98.308594 137.785156 96.511719 138.273438 C 92.175781 139.453125 89.914062 140.003906 90.300781 139.789062 C 90.382812 139.742188 91.300781 139.472656 92.339844 139.191406 C 94.78125 138.523438 97.289062 137.613281 97.203125 137.421875 C 97.132812 137.257812 96.808594 137.328125 94.367188 138.054688 C 92.546875 138.59375 91.296875 138.886719 91.699219 138.675781 C 91.816406 138.617188 92.257812 138.484375 92.679688 138.386719 C 93.101562 138.289062 94.402344 137.824219 95.574219 137.351562 C 96.742188 136.882812 98.148438 136.339844 98.695312 136.148438 C 99.792969 135.765625 102.707031 134.238281 102.910156 133.941406 C 103.007812 133.804688 102.960938 133.757812 102.726562 133.769531 C 102.441406 133.78125 102.4375 133.769531 102.660156 133.660156 C 103.152344 133.421875 102.59375 133.347656 102.027344 133.578125 L 101.445312 133.820312 L 102.015625 133.429688 C 103.785156 132.222656 103.746094 132.214844 101.195312 133.328125 C 98.523438 134.488281 96.351562 135.238281 95.003906 135.460938 C 94.210938 135.59375 94.203125 135.59375 94.835938 135.40625 C 96.015625 135.0625 102.199219 132.253906 103.457031 131.496094 C 105.839844 130.054688 109.917969 127.292969 111.234375 126.226562 C 113.785156 124.160156 115.367188 122.75 115.980469 122.003906 C 116.320312 121.589844 117.058594 120.851562 117.625 120.363281 C 118.195312 119.875 118.8125 119.226562 119 118.921875 C 119.191406 118.617188 120.050781 117.5 120.917969 116.4375 C 130.375 104.816406 134.898438 91.453125 134.246094 77.035156 C 134.035156 72.335938 133 66.984375 131.265625 61.652344 C 130.558594 59.46875 127.527344 52.960938 126.285156 50.960938 C 124.066406 47.378906 121.492188 44.023438 118.824219 41.226562 C 117.347656 39.683594 113.265625 36.003906 111.582031 34.695312 C 109.550781 33.125 104.347656 29.996094 101.699219 28.757812 C 93.3125 24.835938 84.585938 22.988281 75.417969 23.199219 C 73.03125 23.253906 68.40625 23.667969 66.539062 23.996094 C 62.859375 24.644531 57.695312 26.164062 54.253906 27.617188 C 45.78125 31.191406 39.839844 35.363281 33.746094 42.007812 C 30.605469 45.433594 28.855469 47.890625 26.269531 52.507812 C 23.132812 58.105469 21.113281 63.828125 19.945312 70.417969 C 18.53125 78.417969 18.742188 84.707031 20.714844 93.335938 C 21.492188 96.738281 22.046875 98.320312 24.011719 102.753906 C 26.941406 109.355469 29.351562 113.105469 34.703125 119.402344 C 36.710938 121.761719 42.292969 126.722656 45.132812 128.671875 C 45.949219 129.230469 46.710938 129.785156 46.824219 129.902344 C 47.015625 130.101562 47 130.109375 46.589844 129.984375 C 45.875 129.769531 46.292969 130.097656 48.601562 131.570312 L 50.679688 132.898438 L 49.808594 132.707031 C 49.332031 132.601562 48.6875 132.417969 48.382812 132.296875 C 47.886719 132.101562 47.957031 132.183594 49.015625 133.035156 C 49.667969 133.5625 50.378906 134.101562 50.59375 134.234375 C 50.804688 134.367188 51.242188 134.691406 51.566406 134.957031 C 51.886719 135.222656 52.445312 135.609375 52.808594 135.808594 C 53.339844 136.105469 53.257812 136.09375 52.394531 135.746094 C 51.804688 135.507812 50.828125 135.085938 50.226562 134.808594 C 49.1875 134.328125 49.15625 134.324219 49.648438 134.734375 C 49.9375 134.96875 50.925781 135.515625 51.851562 135.945312 C 52.777344 136.375 53.484375 136.75 53.421875 136.777344 C 53.359375 136.804688 52.652344 136.507812 51.847656 136.121094 C 49.53125 135 44.121094 132.265625 43.835938 132.070312 C 43.457031 131.8125 43.300781 131.945312 43.652344 132.222656 C 44.761719 133.089844 48.308594 135.234375 51.703125 137.082031 C 52.414062 137.472656 52.949219 137.8125 52.890625 137.835938 C 52.753906 137.894531 51.117188 137.222656 49.648438 136.507812 C 49.039062 136.207031 48.464844 136 48.375 136.039062 C 48.28125 136.082031 47.996094 136.023438 47.742188 135.917969 C 47.488281 135.808594 47.21875 135.78125 47.144531 135.859375 C 47.011719 135.992188 45.875 135.5625 44.207031 134.746094 C 42.445312 133.882812 44.851562 135.5 47.472656 136.941406 C 48.347656 137.421875 49.09375 137.878906 49.128906 137.960938 C 49.164062 138.042969 49.320312 138.144531 49.476562 138.191406 C 49.632812 138.234375 49.800781 138.363281 49.847656 138.476562 C 49.898438 138.585938 50.144531 138.800781 50.398438 138.953125 C 50.652344 139.105469 50.808594 139.25 50.742188 139.28125 C 50.566406 139.359375 49.242188 138.777344 46.816406 137.550781 C 44.367188 136.3125 43.800781 136.066406 44.46875 136.527344 C 45.753906 137.421875 51.824219 140.203125 51.984375 139.972656 C 52.019531 139.917969 52.632812 140.109375 53.34375 140.402344 C 54.054688 140.695312 54.386719 140.859375 54.082031 140.769531 C 53.628906 140.632812 53.566406 140.644531 53.734375 140.820312 C 54.039062 141.136719 52.492188 140.648438 50.042969 139.652344 C 47.960938 138.808594 46.382812 138.253906 46.84375 138.53125 C 46.972656 138.609375 47.644531 138.992188 48.332031 139.386719 C 49.019531 139.777344 49.601562 140.148438 49.628906 140.203125 C 49.699219 140.371094 48.550781 139.917969 47.683594 139.441406 C 47.253906 139.203125 46.882812 139.046875 46.867188 139.09375 C 46.847656 139.140625 47.085938 139.304688 47.390625 139.457031 C 47.699219 139.605469 48.121094 139.894531 48.332031 140.089844 C 48.707031 140.449219 49.5625 140.851562 53.070312 142.335938 C 54.933594 143.125 55.964844 143.757812 55.304688 143.707031 C 54.769531 143.667969 54.78125 143.722656 55.394531 144.109375 C 56.015625 144.5 57.082031 144.863281 60.496094 145.835938 C 62.761719 146.480469 63.050781 146.589844 62.882812 146.75 C 62.542969 147.0625 57.488281 146.15625 57.230469 145.730469 C 57.0625 145.460938 54.136719 144.351562 51.5 143.566406 C 50.171875 143.167969 48.027344 142.300781 45.652344 141.199219 C 45.304688 141.039062 45.035156 140.949219 45.058594 141.007812 C 45.136719 141.210938 47.503906 142.304688 49.949219 143.273438 C 51.308594 143.8125 52.433594 144.332031 52.449219 144.433594 C 52.464844 144.53125 53.148438 144.878906 53.964844 145.203125 C 55.441406 145.789062 55.445312 145.792969 54.769531 145.796875 C 54.394531 145.800781 53.292969 145.53125 52.324219 145.199219 C 51.351562 144.867188 50.242188 144.578125 49.859375 144.554688 C 49.464844 144.535156 48.660156 144.265625 48.023438 143.945312 C 47.402344 143.632812 46.363281 143.125 45.71875 142.820312 C 44.632812 142.308594 44.628906 142.226562 45.710938 142.566406 C 46.082031 142.683594 46.117188 142.675781 45.953125 142.507812 C 45.59375 142.144531 45.875 142.246094 47.132812 142.9375 C 48.25 143.550781 48.808594 143.789062 48.328125 143.441406 C 47.753906 143.03125 44.117188 141.230469 44.050781 141.324219 C 43.964844 141.457031 41.625 140.238281 40.375 139.410156 C 38.929688 138.453125 37 137.355469 36.863281 137.414062 C 36.792969 137.449219 36.539062 137.371094 36.304688 137.25 L 35.878906 137.027344 L 36.324219 137.40625 C 36.699219 137.722656 39.621094 139.925781 41.429688 141.253906 C 43.15625 142.523438 37.71875 139.328125 34.9375 137.441406 C 33.882812 136.730469 32.929688 136.113281 32.816406 136.070312 C 32.351562 135.902344 34.660156 137.65625 37.757812 139.824219 C 38.859375 140.597656 41.613281 142.273438 43.601562 143.386719 C 43.898438 143.550781 44.101562 143.699219 44.0625 143.71875 C 43.925781 143.78125 39.015625 141.398438 37.800781 140.683594 C 35.175781 139.136719 33.402344 138.207031 34.125 138.75 C 34.21875 138.820312 34.164062 138.828125 34.003906 138.761719 C 33.230469 138.453125 30.324219 136.339844 26.167969 133.070312 C 24.421875 131.699219 22.046875 129.230469 19.523438 126.164062 C 14.734375 120.34375 11.675781 115.363281 8.742188 108.609375 C 7.882812 106.632812 7.074219 104.722656 6.949219 104.371094 Z M 6.949219 104.371094 " clip-rule="nonzero"/></clipPath><linearGradient x1="-0.166694" gradientTransform="matrix(58.994334, 133.458928, -135.184906, 59.757284, 47.032434, 12.449067)" y1="0" x2="1.14546" gradientUnits="userSpaceOnUse" y2="0" id="3333d6318b"><stop stop-opacity="1" stop-color="rgb(46.699524%, 1.199341%, 97.299194%)" offset="0"/><stop stop-opacity="1" stop-color="rgb(46.699524%, 1.199341%, 97.299194%)" offset="0.125"/><stop stop-opacity="1" stop-color="rgb(46.881104%, 1.213074%, 97.190857%)" offset="0.132812"/><stop stop-opacity="1" stop-color="rgb(47.311401%, 1.248169%, 96.934509%)" offset="0.136719"/><stop stop-opacity="1" stop-color="rgb(47.558594%, 1.268005%, 96.788025%)" offset="0.140625"/><stop stop-opacity="1" stop-color="rgb(47.805786%, 1.287842%, 96.640015%)" offset="0.144531"/><stop stop-opacity="1" stop-color="rgb(48.052979%, 1.309204%, 96.49353%)" offset="0.148437"/><stop stop-opacity="1" stop-color="rgb(48.300171%, 1.329041%, 96.34552%)" offset="0.152344"/><stop stop-opacity="1" stop-color="rgb(48.547363%, 1.348877%, 96.199036%)" offset="0.15625"/><stop stop-opacity="1" stop-color="rgb(48.79303%, 1.368713%, 96.051025%)" offset="0.160156"/><stop stop-opacity="1" stop-color="rgb(49.040222%, 1.38855%, 95.904541%)" offset="0.164062"/><stop stop-opacity="1" stop-color="rgb(49.287415%, 1.408386%, 95.756531%)" offset="0.167969"/><stop stop-opacity="1" stop-color="rgb(49.534607%, 1.428223%, 95.610046%)" offset="0.171875"/><stop stop-opacity="1" stop-color="rgb(49.781799%, 1.448059%, 95.463562%)" offset="0.175781"/><stop stop-opacity="1" stop-color="rgb(50.028992%, 1.469421%, 95.317078%)" offset="0.179688"/><stop stop-opacity="1" stop-color="rgb(50.276184%, 1.489258%, 95.169067%)" offset="0.183594"/><stop stop-opacity="1" stop-color="rgb(50.523376%, 1.509094%, 95.022583%)" offset="0.1875"/><stop stop-opacity="1" stop-color="rgb(50.770569%, 1.528931%, 94.874573%)" offset="0.191406"/><stop stop-opacity="1" stop-color="rgb(51.017761%, 1.548767%, 94.728088%)" offset="0.195312"/><stop stop-opacity="1" stop-color="rgb(51.264954%, 1.568604%, 94.580078%)" offset="0.199219"/><stop stop-opacity="1" stop-color="rgb(51.512146%, 1.58844%, 94.433594%)" offset="0.203125"/><stop stop-opacity="1" stop-color="rgb(51.757812%, 1.608276%, 94.285583%)" offset="0.207031"/><stop stop-opacity="1" stop-color="rgb(52.005005%, 1.628113%, 94.139099%)" offset="0.210938"/><stop stop-opacity="1" stop-color="rgb(52.252197%, 1.647949%, 93.992615%)" offset="0.214844"/><stop stop-opacity="1" stop-color="rgb(52.49939%, 1.669312%, 93.84613%)" offset="0.21875"/><stop stop-opacity="1" stop-color="rgb(52.746582%, 1.689148%, 93.69812%)" offset="0.222656"/><stop stop-opacity="1" stop-color="rgb(52.993774%, 1.708984%, 93.551636%)" offset="0.226562"/><stop stop-opacity="1" stop-color="rgb(53.240967%, 1.728821%, 93.403625%)" offset="0.230469"/><stop stop-opacity="1" stop-color="rgb(53.488159%, 1.748657%, 93.257141%)" offset="0.234375"/><stop stop-opacity="1" stop-color="rgb(53.735352%, 1.768494%, 93.109131%)" offset="0.238281"/><stop stop-opacity="1" stop-color="rgb(53.982544%, 1.78833%, 92.962646%)" offset="0.242187"/><stop stop-opacity="1" stop-color="rgb(54.22821%, 1.808167%, 92.814636%)" offset="0.246094"/><stop stop-opacity="1" stop-color="rgb(54.475403%, 1.828003%, 92.668152%)" offset="0.25"/><stop stop-opacity="1" stop-color="rgb(54.722595%, 1.847839%, 92.521667%)" offset="0.253906"/><stop stop-opacity="1" stop-color="rgb(54.969788%, 1.869202%, 92.375183%)" offset="0.257812"/><stop stop-opacity="1" stop-color="rgb(55.21698%, 1.889038%, 92.227173%)" offset="0.261719"/><stop stop-opacity="1" stop-color="rgb(55.464172%, 1.908875%, 92.080688%)" offset="0.265625"/><stop stop-opacity="1" stop-color="rgb(55.711365%, 1.928711%, 91.932678%)" offset="0.269531"/><stop stop-opacity="1" stop-color="rgb(55.958557%, 1.948547%, 91.786194%)" offset="0.273438"/><stop stop-opacity="1" stop-color="rgb(56.20575%, 1.968384%, 91.638184%)" offset="0.277344"/><stop stop-opacity="1" stop-color="rgb(56.452942%, 1.98822%, 91.491699%)" offset="0.28125"/><stop stop-opacity="1" stop-color="rgb(56.700134%, 2.008057%, 91.343689%)" offset="0.285156"/><stop stop-opacity="1" stop-color="rgb(56.947327%, 2.027893%, 91.197205%)" offset="0.289062"/><stop stop-opacity="1" stop-color="rgb(57.192993%, 2.047729%, 91.049194%)" offset="0.292969"/><stop stop-opacity="1" stop-color="rgb(57.440186%, 2.069092%, 90.90271%)" offset="0.296875"/><stop stop-opacity="1" stop-color="rgb(57.687378%, 2.088928%, 90.756226%)" offset="0.300781"/><stop stop-opacity="1" stop-color="rgb(57.93457%, 2.108765%, 90.609741%)" offset="0.304688"/><stop stop-opacity="1" stop-color="rgb(58.181763%, 2.128601%, 90.461731%)" offset="0.308594"/><stop stop-opacity="1" stop-color="rgb(58.428955%, 2.148438%, 90.315247%)" offset="0.3125"/><stop stop-opacity="1" stop-color="rgb(58.676147%, 2.168274%, 90.167236%)" offset="0.316406"/><stop stop-opacity="1" stop-color="rgb(58.92334%, 2.18811%, 90.020752%)" offset="0.320312"/><stop stop-opacity="1" stop-color="rgb(59.170532%, 2.207947%, 89.872742%)" offset="0.324219"/><stop stop-opacity="1" stop-color="rgb(59.417725%, 2.227783%, 89.726257%)" offset="0.328125"/><stop stop-opacity="1" stop-color="rgb(59.663391%, 2.24762%, 89.578247%)" offset="0.332031"/><stop stop-opacity="1" stop-color="rgb(59.910583%, 2.268982%, 89.431763%)" offset="0.335937"/><stop stop-opacity="1" stop-color="rgb(60.157776%, 2.288818%, 89.285278%)" offset="0.339844"/><stop stop-opacity="1" stop-color="rgb(60.404968%, 2.308655%, 89.138794%)" offset="0.34375"/><stop stop-opacity="1" stop-color="rgb(60.652161%, 2.328491%, 88.990784%)" offset="0.347656"/><stop stop-opacity="1" stop-color="rgb(60.899353%, 2.348328%, 88.844299%)" offset="0.351562"/><stop stop-opacity="1" stop-color="rgb(61.146545%, 2.368164%, 88.696289%)" offset="0.355469"/><stop stop-opacity="1" stop-color="rgb(61.393738%, 2.388%, 88.549805%)" offset="0.359375"/><stop stop-opacity="1" stop-color="rgb(61.64093%, 2.407837%, 88.401794%)" offset="0.363281"/><stop stop-opacity="1" stop-color="rgb(61.888123%, 2.427673%, 88.25531%)" offset="0.367188"/><stop stop-opacity="1" stop-color="rgb(62.135315%, 2.44751%, 88.1073%)" offset="0.371094"/><stop stop-opacity="1" stop-color="rgb(62.382507%, 2.468872%, 87.960815%)" offset="0.375"/><stop stop-opacity="1" stop-color="rgb(62.628174%, 2.488708%, 87.814331%)" offset="0.378906"/><stop stop-opacity="1" stop-color="rgb(62.875366%, 2.508545%, 87.667847%)" offset="0.382812"/><stop stop-opacity="1" stop-color="rgb(63.122559%, 2.528381%, 87.519836%)" offset="0.386719"/><stop stop-opacity="1" stop-color="rgb(63.369751%, 2.548218%, 87.373352%)" offset="0.390625"/><stop stop-opacity="1" stop-color="rgb(63.616943%, 2.568054%, 87.225342%)" offset="0.394531"/><stop stop-opacity="1" stop-color="rgb(63.864136%, 2.587891%, 87.078857%)" offset="0.398438"/><stop stop-opacity="1" stop-color="rgb(64.111328%, 2.607727%, 86.930847%)" offset="0.402344"/><stop stop-opacity="1" stop-color="rgb(64.358521%, 2.627563%, 86.784363%)" offset="0.40625"/><stop stop-opacity="1" stop-color="rgb(64.605713%, 2.6474%, 86.636353%)" offset="0.410156"/><stop stop-opacity="1" stop-color="rgb(64.852905%, 2.668762%, 86.489868%)" offset="0.414062"/><stop stop-opacity="1" stop-color="rgb(65.098572%, 2.688599%, 86.341858%)" offset="0.417969"/><stop stop-opacity="1" stop-color="rgb(65.345764%, 2.708435%, 86.195374%)" offset="0.421875"/><stop stop-opacity="1" stop-color="rgb(65.592957%, 2.728271%, 86.048889%)" offset="0.425781"/><stop stop-opacity="1" stop-color="rgb(65.840149%, 2.748108%, 85.902405%)" offset="0.429688"/><stop stop-opacity="1" stop-color="rgb(66.087341%, 2.767944%, 85.754395%)" offset="0.433594"/><stop stop-opacity="1" stop-color="rgb(66.334534%, 2.787781%, 85.60791%)" offset="0.4375"/><stop stop-opacity="1" stop-color="rgb(66.581726%, 2.807617%, 85.4599%)" offset="0.441406"/><stop stop-opacity="1" stop-color="rgb(66.828918%, 2.827454%, 85.313416%)" offset="0.445312"/><stop stop-opacity="1" stop-color="rgb(67.076111%, 2.84729%, 85.165405%)" offset="0.449219"/><stop stop-opacity="1" stop-color="rgb(67.323303%, 2.868652%, 85.018921%)" offset="0.453125"/><stop stop-opacity="1" stop-color="rgb(67.570496%, 2.888489%, 84.870911%)" offset="0.457031"/><stop stop-opacity="1" stop-color="rgb(67.817688%, 2.908325%, 84.724426%)" offset="0.460938"/><stop stop-opacity="1" stop-color="rgb(68.063354%, 2.928162%, 84.577942%)" offset="0.464844"/><stop stop-opacity="1" stop-color="rgb(68.310547%, 2.947998%, 84.431458%)" offset="0.46875"/><stop stop-opacity="1" stop-color="rgb(68.557739%, 2.967834%, 84.283447%)" offset="0.472656"/><stop stop-opacity="1" stop-color="rgb(68.804932%, 2.987671%, 84.136963%)" offset="0.476562"/><stop stop-opacity="1" stop-color="rgb(69.052124%, 3.007507%, 83.988953%)" offset="0.480469"/><stop stop-opacity="1" stop-color="rgb(69.299316%, 3.027344%, 83.842468%)" offset="0.484375"/><stop stop-opacity="1" stop-color="rgb(69.546509%, 3.04718%, 83.694458%)" offset="0.488281"/><stop stop-opacity="1" stop-color="rgb(69.793701%, 3.068542%, 83.547974%)" offset="0.492187"/><stop stop-opacity="1" stop-color="rgb(70.040894%, 3.088379%, 83.399963%)" offset="0.496094"/><stop stop-opacity="1" stop-color="rgb(70.288086%, 3.108215%, 83.253479%)" offset="0.5"/><stop stop-opacity="1" stop-color="rgb(70.533752%, 3.128052%, 83.105469%)" offset="0.503906"/><stop stop-opacity="1" stop-color="rgb(70.780945%, 3.147888%, 82.958984%)" offset="0.507812"/><stop stop-opacity="1" stop-color="rgb(71.028137%, 3.167725%, 82.8125%)" offset="0.511719"/><stop stop-opacity="1" stop-color="rgb(71.27533%, 3.187561%, 82.666016%)" offset="0.515625"/><stop stop-opacity="1" stop-color="rgb(71.522522%, 3.207397%, 82.518005%)" offset="0.519531"/><stop stop-opacity="1" stop-color="rgb(71.769714%, 3.227234%, 82.371521%)" offset="0.523437"/><stop stop-opacity="1" stop-color="rgb(72.016907%, 3.24707%, 82.223511%)" offset="0.527344"/><stop stop-opacity="1" stop-color="rgb(72.264099%, 3.268433%, 82.077026%)" offset="0.53125"/><stop stop-opacity="1" stop-color="rgb(72.511292%, 3.288269%, 81.929016%)" offset="0.535156"/><stop stop-opacity="1" stop-color="rgb(72.758484%, 3.308105%, 81.782532%)" offset="0.539062"/><stop stop-opacity="1" stop-color="rgb(73.005676%, 3.327942%, 81.634521%)" offset="0.542969"/><stop stop-opacity="1" stop-color="rgb(73.252869%, 3.347778%, 81.488037%)" offset="0.546875"/><stop stop-opacity="1" stop-color="rgb(73.498535%, 3.367615%, 81.341553%)" offset="0.550781"/><stop stop-opacity="1" stop-color="rgb(73.745728%, 3.387451%, 81.195068%)" offset="0.554687"/><stop stop-opacity="1" stop-color="rgb(73.99292%, 3.407288%, 81.047058%)" offset="0.558594"/><stop stop-opacity="1" stop-color="rgb(74.240112%, 3.427124%, 80.900574%)" offset="0.5625"/><stop stop-opacity="1" stop-color="rgb(74.487305%, 3.44696%, 80.752563%)" offset="0.566406"/><stop stop-opacity="1" stop-color="rgb(74.734497%, 3.468323%, 80.606079%)" offset="0.570312"/><stop stop-opacity="1" stop-color="rgb(74.981689%, 3.488159%, 80.458069%)" offset="0.574219"/><stop stop-opacity="1" stop-color="rgb(75.228882%, 3.507996%, 80.311584%)" offset="0.578125"/><stop stop-opacity="1" stop-color="rgb(75.476074%, 3.527832%, 80.163574%)" offset="0.582031"/><stop stop-opacity="1" stop-color="rgb(75.723267%, 3.547668%, 80.01709%)" offset="0.585938"/><stop stop-opacity="1" stop-color="rgb(75.968933%, 3.567505%, 79.870605%)" offset="0.589844"/><stop stop-opacity="1" stop-color="rgb(76.216125%, 3.587341%, 79.724121%)" offset="0.59375"/><stop stop-opacity="1" stop-color="rgb(76.463318%, 3.607178%, 79.576111%)" offset="0.597656"/><stop stop-opacity="1" stop-color="rgb(76.71051%, 3.627014%, 79.429626%)" offset="0.601562"/><stop stop-opacity="1" stop-color="rgb(76.957703%, 3.646851%, 79.281616%)" offset="0.605469"/><stop stop-opacity="1" stop-color="rgb(77.204895%, 3.668213%, 79.135132%)" offset="0.609375"/><stop stop-opacity="1" stop-color="rgb(77.452087%, 3.688049%, 78.987122%)" offset="0.613281"/><stop stop-opacity="1" stop-color="rgb(77.69928%, 3.707886%, 78.840637%)" offset="0.617188"/><stop stop-opacity="1" stop-color="rgb(77.946472%, 3.727722%, 78.692627%)" offset="0.621094"/><stop stop-opacity="1" stop-color="rgb(78.193665%, 3.747559%, 78.546143%)" offset="0.625"/><stop stop-opacity="1" stop-color="rgb(78.440857%, 3.767395%, 78.398132%)" offset="0.628906"/><stop stop-opacity="1" stop-color="rgb(78.688049%, 3.787231%, 78.251648%)" offset="0.632812"/><stop stop-opacity="1" stop-color="rgb(78.933716%, 3.807068%, 78.105164%)" offset="0.636719"/><stop stop-opacity="1" stop-color="rgb(79.180908%, 3.826904%, 77.958679%)" offset="0.640625"/><stop stop-opacity="1" stop-color="rgb(79.428101%, 3.846741%, 77.810669%)" offset="0.644531"/><stop stop-opacity="1" stop-color="rgb(79.675293%, 3.868103%, 77.664185%)" offset="0.648438"/><stop stop-opacity="1" stop-color="rgb(79.922485%, 3.887939%, 77.516174%)" offset="0.652344"/><stop stop-opacity="1" stop-color="rgb(80.169678%, 3.907776%, 77.36969%)" offset="0.65625"/><stop stop-opacity="1" stop-color="rgb(80.41687%, 3.927612%, 77.22168%)" offset="0.660156"/><stop stop-opacity="1" stop-color="rgb(80.664062%, 3.947449%, 77.075195%)" offset="0.664062"/><stop stop-opacity="1" stop-color="rgb(80.911255%, 3.967285%, 76.927185%)" offset="0.667969"/><stop stop-opacity="1" stop-color="rgb(81.158447%, 3.987122%, 76.780701%)" offset="0.671875"/><stop stop-opacity="1" stop-color="rgb(81.404114%, 4.006958%, 76.634216%)" offset="0.675781"/><stop stop-opacity="1" stop-color="rgb(81.651306%, 4.026794%, 76.487732%)" offset="0.679687"/><stop stop-opacity="1" stop-color="rgb(81.898499%, 4.046631%, 76.339722%)" offset="0.683594"/><stop stop-opacity="1" stop-color="rgb(82.145691%, 4.067993%, 76.193237%)" offset="0.6875"/><stop stop-opacity="1" stop-color="rgb(82.392883%, 4.08783%, 76.045227%)" offset="0.691406"/><stop stop-opacity="1" stop-color="rgb(82.640076%, 4.107666%, 75.898743%)" offset="0.695312"/><stop stop-opacity="1" stop-color="rgb(82.887268%, 4.127502%, 75.750732%)" offset="0.699219"/><stop stop-opacity="1" stop-color="rgb(83.13446%, 4.147339%, 75.604248%)" offset="0.703125"/><stop stop-opacity="1" stop-color="rgb(83.381653%, 4.167175%, 75.456238%)" offset="0.707031"/><stop stop-opacity="1" stop-color="rgb(83.628845%, 4.187012%, 75.309753%)" offset="0.710937"/><stop stop-opacity="1" stop-color="rgb(83.876038%, 4.206848%, 75.163269%)" offset="0.714844"/><stop stop-opacity="1" stop-color="rgb(84.12323%, 4.226685%, 75.016785%)" offset="0.71875"/><stop stop-opacity="1" stop-color="rgb(84.368896%, 4.246521%, 74.868774%)" offset="0.722656"/><stop stop-opacity="1" stop-color="rgb(84.616089%, 4.267883%, 74.72229%)" offset="0.726562"/><stop stop-opacity="1" stop-color="rgb(84.863281%, 4.28772%, 74.57428%)" offset="0.730469"/><stop stop-opacity="1" stop-color="rgb(85.110474%, 4.307556%, 74.427795%)" offset="0.734375"/><stop stop-opacity="1" stop-color="rgb(85.357666%, 4.327393%, 74.279785%)" offset="0.738281"/><stop stop-opacity="1" stop-color="rgb(85.604858%, 4.347229%, 74.133301%)" offset="0.742187"/><stop stop-opacity="1" stop-color="rgb(85.852051%, 4.367065%, 73.985291%)" offset="0.746094"/><stop stop-opacity="1" stop-color="rgb(86.099243%, 4.386902%, 73.838806%)" offset="0.75"/><stop stop-opacity="1" stop-color="rgb(86.346436%, 4.406738%, 73.690796%)" offset="0.753906"/><stop stop-opacity="1" stop-color="rgb(86.593628%, 4.426575%, 73.544312%)" offset="0.757812"/><stop stop-opacity="1" stop-color="rgb(86.839294%, 4.446411%, 73.397827%)" offset="0.761719"/><stop stop-opacity="1" stop-color="rgb(87.086487%, 4.467773%, 73.251343%)" offset="0.765625"/><stop stop-opacity="1" stop-color="rgb(87.333679%, 4.48761%, 73.103333%)" offset="0.769531"/><stop stop-opacity="1" stop-color="rgb(87.580872%, 4.507446%, 72.956848%)" offset="0.773437"/><stop stop-opacity="1" stop-color="rgb(87.828064%, 4.527283%, 72.808838%)" offset="0.777344"/><stop stop-opacity="1" stop-color="rgb(88.075256%, 4.547119%, 72.662354%)" offset="0.78125"/><stop stop-opacity="1" stop-color="rgb(88.322449%, 4.566956%, 72.514343%)" offset="0.785156"/><stop stop-opacity="1" stop-color="rgb(88.569641%, 4.586792%, 72.367859%)" offset="0.789062"/><stop stop-opacity="1" stop-color="rgb(88.816833%, 4.606628%, 72.219849%)" offset="0.792969"/><stop stop-opacity="1" stop-color="rgb(89.064026%, 4.626465%, 72.073364%)" offset="0.796875"/><stop stop-opacity="1" stop-color="rgb(89.311218%, 4.646301%, 71.92688%)" offset="0.800781"/><stop stop-opacity="1" stop-color="rgb(89.558411%, 4.667664%, 71.780396%)" offset="0.804688"/><stop stop-opacity="1" stop-color="rgb(89.804077%, 4.6875%, 71.632385%)" offset="0.808594"/><stop stop-opacity="1" stop-color="rgb(90.05127%, 4.707336%, 71.485901%)" offset="0.8125"/><stop stop-opacity="1" stop-color="rgb(90.298462%, 4.727173%, 71.337891%)" offset="0.816406"/><stop stop-opacity="1" stop-color="rgb(90.545654%, 4.747009%, 71.191406%)" offset="0.820312"/><stop stop-opacity="1" stop-color="rgb(90.792847%, 4.766846%, 71.043396%)" offset="0.824219"/><stop stop-opacity="1" stop-color="rgb(91.040039%, 4.786682%, 70.896912%)" offset="0.828125"/><stop stop-opacity="1" stop-color="rgb(91.287231%, 4.806519%, 70.748901%)" offset="0.832031"/><stop stop-opacity="1" stop-color="rgb(91.534424%, 4.826355%, 70.602417%)" offset="0.835938"/><stop stop-opacity="1" stop-color="rgb(91.781616%, 4.846191%, 70.455933%)" offset="0.839844"/><stop stop-opacity="1" stop-color="rgb(92.028809%, 4.867554%, 70.309448%)" offset="0.84375"/><stop stop-opacity="1" stop-color="rgb(92.274475%, 4.88739%, 70.161438%)" offset="0.847656"/><stop stop-opacity="1" stop-color="rgb(92.521667%, 4.907227%, 70.014954%)" offset="0.851562"/><stop stop-opacity="1" stop-color="rgb(92.76886%, 4.927063%, 69.866943%)" offset="0.855469"/><stop stop-opacity="1" stop-color="rgb(93.016052%, 4.946899%, 69.720459%)" offset="0.859375"/><stop stop-opacity="1" stop-color="rgb(93.263245%, 4.966736%, 69.572449%)" offset="0.863281"/><stop stop-opacity="1" stop-color="rgb(93.510437%, 4.986572%, 69.425964%)" offset="0.867188"/><stop stop-opacity="1" stop-color="rgb(93.757629%, 5.006409%, 69.277954%)" offset="0.871094"/><stop stop-opacity="1" stop-color="rgb(94.004822%, 5.026245%, 69.13147%)" offset="0.875"/><stop stop-opacity="1" stop-color="rgb(94.252014%, 5.046082%, 68.983459%)" offset="0.878906"/><stop stop-opacity="1" stop-color="rgb(94.499207%, 5.067444%, 68.836975%)" offset="0.882812"/><stop stop-opacity="1" stop-color="rgb(94.699097%, 5.082703%, 68.717957%)" offset="0.886719"/><stop stop-opacity="1" stop-color="rgb(94.898987%, 5.099487%, 68.598938%)" offset="0.890625"/><stop stop-opacity="1" stop-color="rgb(94.898987%, 5.099487%, 68.598938%)" offset="0.90625"/><stop stop-opacity="1" stop-color="rgb(94.898987%, 5.099487%, 68.598938%)" offset="0.9375"/><stop stop-opacity="1" stop-color="rgb(94.898987%, 5.099487%, 68.598938%)" offset="1"/></linearGradient><clipPath id="ea289a5da1"><path d="M 63 62 L 92 62 L 92 91 L 63 91 Z M 63 62 " clip-rule="nonzero"/></clipPath><clipPath id="207180fa90"><path d="M 117.503906 54.609375 L 77.820312 96.046875 L 57.910156 76.976562 L 97.59375 35.539062 Z M 117.503906 54.609375 " clip-rule="nonzero"/></clipPath><clipPath id="e2d6f092db"><path d="M 117.503906 54.609375 L 77.820312 96.046875 L 57.910156 76.976562 L 97.59375 35.539062 Z M 117.503906 54.609375 " clip-rule="nonzero"/></clipPath><clipPath id="2690e14fac"><path d="M 98 43 L 110 43 L 110 55 L 98 55 Z M 98 43 " clip-rule="nonzero"/></clipPath><clipPath id="62096093d0"><path d="M 117.503906 54.609375 L 77.820312 96.046875 L 57.910156 76.976562 L 97.59375 35.539062 Z M 117.503906 54.609375 " clip-rule="nonzero"/></clipPath><clipPath id="6d4b65850f"><path d="M 117.503906 54.609375 L 77.820312 96.046875 L 57.910156 76.976562 L 97.59375 35.539062 Z M 117.503906 54.609375 " clip-rule="nonzero"/></clipPath></defs><g clip-path="url(#578d0312c9)"><g clip-path="url(#3b5c388b22)"><g clip-path="url(#f83c5d2c2a)"><g clip-path="url(#62be78c348)"><g clip-path="url(#0124eb2390)"><path fill="url(#3333d6318b)" d="M 126.914062 -49.457031 L -51.410156 29.371094 L 26 204.488281 L 204.324219 125.664062 Z M 126.914062 -49.457031 " fill-rule="nonzero"/></g></g></g></g></g><g clip-path="url(#ea289a5da1)"><g clip-path="url(#207180fa90)"><g clip-path="url(#e2d6f092db)"><path fill="#615279" d="M 87.480469 85.960938 C 92.800781 80.40625 92.652344 71.632812 87.15625 66.371094 C 81.660156 61.105469 72.886719 61.335938 67.570312 66.890625 C 62.25 72.445312 62.398438 81.21875 67.894531 86.480469 C 73.390625 91.746094 82.164062 91.511719 87.480469 85.960938 Z M 72.96875 72.0625 C 75.402344 69.523438 79.414062 69.417969 81.929688 71.824219 C 84.445312 74.234375 84.511719 78.25 82.082031 80.789062 C 79.648438 83.328125 75.636719 83.433594 73.121094 81.023438 C 70.605469 78.617188 70.535156 74.605469 72.96875 72.0625 Z M 72.96875 72.0625 " fill-opacity="1" fill-rule="nonzero"/></g></g></g><g clip-path="url(#2690e14fac)"><g clip-path="url(#62096093d0)"><g clip-path="url(#6d4b65850f)"><path fill="#615279" d="M 99.777344 53.191406 C 99.511719 52.941406 99.277344 52.664062 99.070312 52.367188 C 98.859375 52.066406 98.683594 51.75 98.539062 51.417969 C 98.390625 51.082031 98.28125 50.738281 98.203125 50.378906 C 98.125 50.023438 98.085938 49.660156 98.078125 49.296875 C 98.070312 48.929688 98.101562 48.566406 98.167969 48.207031 C 98.234375 47.84375 98.332031 47.492188 98.464844 47.152344 C 98.601562 46.8125 98.765625 46.484375 98.964844 46.175781 C 99.164062 45.867188 99.390625 45.578125 99.644531 45.3125 C 99.898438 45.046875 100.175781 44.808594 100.476562 44.597656 C 100.777344 44.386719 101.09375 44.207031 101.429688 44.058594 C 101.765625 43.910156 102.113281 43.792969 102.46875 43.710938 C 102.828125 43.632812 103.191406 43.585938 103.554688 43.578125 C 103.921875 43.566406 104.285156 43.59375 104.644531 43.65625 C 105.003906 43.714844 105.355469 43.8125 105.695312 43.945312 C 106.035156 44.074219 106.359375 44.238281 106.664062 44.433594 C 106.972656 44.628906 107.257812 44.851562 107.519531 45.105469 C 107.785156 45.355469 108.019531 45.628906 108.226562 45.929688 C 108.4375 46.226562 108.613281 46.542969 108.757812 46.878906 C 108.902344 47.214844 109.015625 47.558594 109.09375 47.914062 C 109.171875 48.273438 109.210938 48.632812 109.21875 49 C 109.222656 49.367188 109.195312 49.730469 109.128906 50.089844 C 109.0625 50.449219 108.964844 50.800781 108.828125 51.144531 C 108.695312 51.484375 108.527344 51.808594 108.332031 52.121094 C 108.132812 52.429688 107.90625 52.71875 107.652344 52.984375 C 107.398438 53.246094 107.121094 53.488281 106.820312 53.699219 C 106.519531 53.910156 106.203125 54.089844 105.867188 54.238281 C 105.53125 54.386719 105.183594 54.503906 104.824219 54.582031 C 104.46875 54.664062 104.105469 54.710938 103.742188 54.71875 C 103.375 54.730469 103.011719 54.703125 102.652344 54.640625 C 102.292969 54.578125 101.941406 54.480469 101.601562 54.351562 C 101.261719 54.21875 100.9375 54.058594 100.632812 53.863281 C 100.324219 53.667969 100.039062 53.445312 99.777344 53.191406 Z M 99.777344 53.191406 " fill-opacity="1" fill-rule="nonzero"/></g></g></g><g fill="#ffffff" fill-opacity="1"><g transform="translate(51.856479, 117.212185)"><g><path d="M 10.9375 -11.515625 C 10.507812 -11.828125 10.019531 -12.066406 9.46875 -12.234375 C 8.925781 -12.410156 8.363281 -12.5 7.78125 -12.5 C 6.59375 -12.5 5.703125 -12.144531 5.109375 -11.4375 C 4.523438 -10.726562 4.25 -9.738281 4.28125 -8.46875 C 5.050781 -9.5625 6.238281 -10.109375 7.84375 -10.109375 C 8.820312 -10.109375 9.679688 -9.898438 10.421875 -9.484375 C 11.160156 -9.066406 11.726562 -8.476562 12.125 -7.71875 C 12.53125 -6.96875 12.734375 -6.097656 12.734375 -5.109375 C 12.734375 -4.035156 12.5 -3.101562 12.03125 -2.3125 C 11.5625 -1.519531 10.898438 -0.90625 10.046875 -0.46875 C 9.191406 -0.0390625 8.203125 0.171875 7.078125 0.171875 C 5.734375 0.171875 4.570312 -0.132812 3.59375 -0.75 C 2.613281 -1.363281 1.859375 -2.242188 1.328125 -3.390625 C 0.804688 -4.535156 0.546875 -5.882812 0.546875 -7.4375 C 0.546875 -9.050781 0.832031 -10.472656 1.40625 -11.703125 C 1.988281 -12.929688 2.804688 -13.878906 3.859375 -14.546875 C 4.910156 -15.210938 6.140625 -15.546875 7.546875 -15.546875 C 8.390625 -15.546875 9.253906 -15.425781 10.140625 -15.1875 C 11.023438 -14.957031 11.789062 -14.648438 12.4375 -14.265625 Z M 7 -7.234375 C 6.257812 -7.234375 5.6875 -7.03125 5.28125 -6.625 C 4.882812 -6.226562 4.6875 -5.710938 4.6875 -5.078125 C 4.6875 -4.472656 4.875 -3.972656 5.25 -3.578125 C 5.632812 -3.179688 6.191406 -2.984375 6.921875 -2.984375 C 7.609375 -2.984375 8.148438 -3.164062 8.546875 -3.53125 C 8.941406 -3.90625 9.140625 -4.4375 9.140625 -5.125 C 9.140625 -5.78125 8.945312 -6.296875 8.5625 -6.671875 C 8.1875 -7.046875 7.664062 -7.234375 7 -7.234375 Z M 7 -7.234375 "/></g></g></g><g fill="#ffffff" fill-opacity="1"><g transform="translate(65.660732, 117.212185)"><g><path d="M 7.015625 -9.796875 C 8.203125 -9.796875 9.242188 -9.597656 10.140625 -9.203125 C 11.035156 -8.804688 11.726562 -8.257812 12.21875 -7.5625 C 12.707031 -6.863281 12.953125 -6.0625 12.953125 -5.15625 C 12.953125 -4.082031 12.695312 -3.144531 12.1875 -2.34375 C 11.675781 -1.539062 10.945312 -0.921875 10 -0.484375 C 9.050781 -0.046875 7.945312 0.171875 6.6875 0.171875 C 5.664062 0.171875 4.609375 0 3.515625 -0.34375 C 2.429688 -0.695312 1.460938 -1.160156 0.609375 -1.734375 L 2.109375 -4.625 C 3.523438 -3.488281 4.90625 -2.921875 6.25 -2.921875 C 7.007812 -2.921875 7.597656 -3.09375 8.015625 -3.4375 C 8.441406 -3.78125 8.65625 -4.25 8.65625 -4.84375 C 8.65625 -5.445312 8.445312 -5.90625 8.03125 -6.21875 C 7.613281 -6.53125 6.988281 -6.6875 6.15625 -6.6875 C 4.21875 -6.6875 2.816406 -6.65625 1.953125 -6.59375 L 1.953125 -15.375 L 12.28125 -15.375 L 12.28125 -12.140625 L 5.640625 -12.140625 L 5.640625 -9.796875 Z M 7.015625 -9.796875 "/></g></g></g><g fill="#ffffff" fill-opacity="1"><g transform="translate(79.355427, 117.212185)"><g><path d="M 4.796875 -15.4375 C 6.117188 -15.4375 7.164062 -15.015625 7.9375 -14.171875 C 8.707031 -13.328125 9.09375 -12.195312 9.09375 -10.78125 C 9.09375 -9.351562 8.707031 -8.21875 7.9375 -7.375 C 7.164062 -6.53125 6.117188 -6.109375 4.796875 -6.109375 C 3.484375 -6.109375 2.4375 -6.53125 1.65625 -7.375 C 0.875 -8.21875 0.484375 -9.351562 0.484375 -10.78125 C 0.484375 -12.195312 0.875 -13.328125 1.65625 -14.171875 C 2.4375 -15.015625 3.484375 -15.4375 4.796875 -15.4375 Z M 4.796875 -13.328125 C 4.234375 -13.328125 3.789062 -13.097656 3.46875 -12.640625 C 3.144531 -12.191406 2.984375 -11.570312 2.984375 -10.78125 C 2.984375 -9.988281 3.144531 -9.363281 3.46875 -8.90625 C 3.789062 -8.457031 4.234375 -8.234375 4.796875 -8.234375 C 5.367188 -8.234375 5.816406 -8.457031 6.140625 -8.90625 C 6.460938 -9.363281 6.625 -9.988281 6.625 -10.78125 C 6.625 -11.570312 6.460938 -12.191406 6.140625 -12.640625 C 5.816406 -13.097656 5.367188 -13.328125 4.796875 -13.328125 Z M 4.03125 0 L 14.96875 -15.375 L 17.671875 -15.375 L 6.75 0 Z M 17 -9.234375 C 18.320312 -9.234375 19.367188 -8.8125 20.140625 -7.96875 C 20.910156 -7.125 21.296875 -5.992188 21.296875 -4.578125 C 21.296875 -3.148438 20.910156 -2.015625 20.140625 -1.171875 C 19.367188 -0.328125 18.320312 0.09375 17 0.09375 C 15.6875 0.09375 14.640625 -0.328125 13.859375 -1.171875 C 13.078125 -2.015625 12.6875 -3.148438 12.6875 -4.578125 C 12.6875 -5.992188 13.078125 -7.125 13.859375 -7.96875 C 14.640625 -8.8125 15.6875 -9.234375 17 -9.234375 Z M 17 -7.125 C 16.4375 -7.125 15.992188 -6.894531 15.671875 -6.4375 C 15.347656 -5.988281 15.1875 -5.367188 15.1875 -4.578125 C 15.1875 -3.785156 15.347656 -3.160156 15.671875 -2.703125 C 15.992188 -2.253906 16.4375 -2.03125 17 -2.03125 C 17.570312 -2.03125 18.019531 -2.253906 18.34375 -2.703125 C 18.664062 -3.160156 18.828125 -3.785156 18.828125 -4.578125 C 18.828125 -5.367188 18.664062 -5.988281 18.34375 -6.4375 C 18.019531 -6.894531 17.570312 -7.125 17 -7.125 Z M 17 -7.125 "/></g></g></g></svg>