<svg xmlns="http://www.w3.org/2000/svg" xmlns:xlink="http://www.w3.org/1999/xlink" width="40" zoomAndPan="magnify" viewBox="0 0 30 30.000001" height="40" preserveAspectRatio="xMidYMid meet" version="1.0"><defs><clipPath id="6e22e6a0d1"><path d="M 1.636719 3.410156 L 28.492188 3.410156 L 28.492188 25.910156 L 1.636719 25.910156 Z M 1.636719 3.410156 " clip-rule="nonzero"/></clipPath></defs><g clip-path="url(#6e22e6a0d1)"><path fill="#ffffff" d="M 25.960938 3.417969 L 4.167969 3.417969 C 2.773438 3.417969 1.636719 4.539062 1.636719 5.914062 L 1.636719 23.40625 C 1.636719 24.777344 2.773438 25.898438 4.167969 25.898438 L 25.960938 25.898438 C 27.355469 25.898438 28.492188 24.777344 28.492188 23.40625 L 28.492188 5.914062 C 28.492188 4.539062 27.355469 3.417969 25.960938 3.417969 Z M 3.695312 5.914062 C 3.695312 5.660156 3.910156 5.449219 4.167969 5.449219 L 25.960938 5.449219 C 26.21875 5.449219 26.433594 5.660156 26.433594 5.914062 L 26.433594 6.234375 L 15.304688 17.199219 C 15.175781 17.332031 14.953125 17.332031 14.820312 17.199219 L 3.695312 6.234375 Z M 26.433594 23.40625 C 26.433594 23.660156 26.21875 23.871094 25.960938 23.871094 L 4.167969 23.871094 C 3.910156 23.871094 3.695312 23.660156 3.695312 23.40625 L 3.695312 9.105469 L 13.363281 18.632812 C 13.816406 19.078125 14.417969 19.324219 15.0625 19.324219 C 15.703125 19.324219 16.308594 19.078125 16.757812 18.632812 L 26.425781 9.105469 L 26.425781 23.40625 Z M 26.433594 23.40625 " fill-opacity="1" fill-rule="nonzero"/></g></svg>