<svg xmlns="http://www.w3.org/2000/svg" xmlns:xlink="http://www.w3.org/1999/xlink" width="800" zoomAndPan="magnify" viewBox="0 0 600 599.999999" height="800" preserveAspectRatio="xMidYMid meet" version="1.0"><defs><clipPath id="c36d8fc7b5"><path d="M 179 189.332031 L 420.972656 189.332031 L 420.972656 410.582031 L 179 410.582031 Z M 179 189.332031 " clip-rule="nonzero"/></clipPath></defs><g clip-path="url(#c36d8fc7b5)"><path fill="#ffffff" d="M 368.074219 189.746094 C 365.777344 189.726562 363.730469 191.183594 363.015625 193.375 L 336.941406 273.71875 L 262.753906 273.71875 L 236.679688 193.375 C 235.980469 191.265625 234.035156 189.808594 231.804688 189.746094 C 229.570312 189.707031 227.5625 191.058594 226.765625 193.148438 L 195.34375 277.078125 C 195.324219 277.078125 195.324219 277.101562 195.304688 277.121094 L 179.574219 319.105469 C 178.753906 321.320312 179.492188 323.800781 181.417969 325.195312 L 296.734375 409.125 L 296.753906 409.164062 C 296.773438 409.164062 296.773438 409.164062 296.773438 409.183594 C 296.835938 409.226562 296.917969 409.265625 296.980469 409.308594 C 297.058594 409.347656 297.121094 409.410156 297.203125 409.453125 C 297.222656 409.453125 297.222656 409.472656 297.246094 409.472656 C 297.246094 409.472656 297.265625 409.492188 297.285156 409.492188 C 297.304688 409.511719 297.328125 409.535156 297.367188 409.535156 C 297.386719 409.554688 297.429688 409.574219 297.449219 409.59375 C 297.550781 409.636719 297.675781 409.699219 297.796875 409.738281 C 297.796875 409.738281 297.796875 409.738281 297.796875 409.757812 C 297.921875 409.800781 298.042969 409.839844 298.144531 409.882812 C 298.167969 409.882812 298.167969 409.882812 298.1875 409.902344 C 298.269531 409.921875 298.351562 409.945312 298.453125 409.984375 C 298.496094 409.984375 298.535156 410.003906 298.597656 410.003906 C 298.597656 410.027344 298.597656 410.027344 298.597656 410.003906 C 298.699219 410.046875 298.800781 410.066406 298.902344 410.085938 C 299.046875 410.109375 299.171875 410.128906 299.3125 410.148438 C 299.519531 410.148438 299.742188 410.167969 299.949219 410.167969 C 300.152344 410.148438 300.335938 410.148438 300.523438 410.109375 C 300.605469 410.109375 300.664062 410.109375 300.746094 410.085938 C 300.746094 410.085938 300.769531 410.085938 300.789062 410.085938 C 300.828125 410.066406 300.851562 410.066406 300.890625 410.066406 C 300.910156 410.066406 300.933594 410.046875 300.972656 410.046875 C 301.011719 410.027344 301.074219 410.027344 301.117188 410.003906 C 301.199219 409.984375 301.257812 409.964844 301.320312 409.945312 C 301.363281 409.945312 301.382812 409.945312 301.402344 409.921875 C 301.421875 409.921875 301.445312 409.921875 301.464844 409.921875 C 301.546875 409.882812 301.648438 409.839844 301.730469 409.820312 C 301.832031 409.78125 301.914062 409.738281 301.996094 409.699219 C 302.015625 409.699219 302.015625 409.699219 302.039062 409.675781 C 302.058594 409.675781 302.078125 409.675781 302.097656 409.65625 C 302.140625 409.636719 302.179688 409.617188 302.222656 409.59375 C 302.34375 409.535156 302.449219 409.472656 302.550781 409.410156 C 302.589844 409.390625 302.609375 409.371094 302.632812 409.347656 C 302.652344 409.347656 302.671875 409.328125 302.691406 409.328125 C 302.773438 409.265625 302.855469 409.226562 302.9375 409.164062 L 302.980469 409.101562 L 418.296875 325.195312 C 420.199219 323.800781 420.9375 321.320312 420.117188 319.105469 L 404.429688 277.265625 C 404.410156 277.222656 404.386719 277.160156 404.386719 277.121094 L 372.925781 193.148438 C 372.148438 191.121094 370.246094 189.765625 368.074219 189.746094 Z M 231.332031 210.882812 L 251.734375 273.71875 L 207.796875 273.71875 Z M 368.359375 210.882812 L 391.914062 273.71875 L 347.960938 273.71875 Z M 211.054688 284.214844 L 255.132812 284.214844 L 285.835938 378.761719 Z M 266.171875 284.214844 L 333.519531 284.214844 L 299.847656 387.945312 Z M 344.558594 284.214844 L 388.636719 284.214844 L 313.855469 378.761719 Z M 201.859375 289.503906 L 271.988281 378.167969 L 190.796875 319.066406 Z M 397.835938 289.503906 L 408.894531 319.066406 L 327.703125 378.167969 Z M 397.835938 289.503906 " fill-opacity="1" fill-rule="nonzero"/></g><path fill="#ffffff" d="M 459 43.242188 C 453.652344 43.195312 448.878906 46.585938 447.207031 51.695312 L 386.421875 238.796875 L 213.46875 238.796875 L 152.683594 51.695312 C 151.0625 46.777344 146.523438 43.386719 141.320312 43.242188 C 136.117188 43.148438 131.4375 46.300781 129.574219 51.167969 L 56.324219 246.628906 C 56.277344 246.628906 56.277344 246.675781 56.230469 246.722656 L 19.558594 344.5 C 17.648438 349.65625 19.367188 355.433594 23.855469 358.679688 L 292.6875 554.136719 L 292.734375 554.234375 C 292.785156 554.234375 292.785156 554.234375 292.785156 554.28125 C 292.925781 554.378906 293.117188 554.472656 293.261719 554.566406 C 293.453125 554.664062 293.59375 554.808594 293.785156 554.902344 C 293.832031 554.902344 293.832031 554.949219 293.882812 554.949219 C 293.882812 554.949219 293.929688 554.996094 293.976562 554.996094 C 294.023438 555.046875 294.074219 555.09375 294.167969 555.09375 C 294.214844 555.140625 294.3125 555.1875 294.359375 555.238281 C 294.597656 555.332031 294.882812 555.476562 295.171875 555.570312 C 295.171875 555.570312 295.171875 555.570312 295.171875 555.617188 C 295.457031 555.714844 295.742188 555.808594 295.984375 555.90625 C 296.03125 555.90625 296.03125 555.90625 296.078125 555.953125 C 296.269531 556 296.460938 556.046875 296.699219 556.144531 C 296.792969 556.144531 296.890625 556.191406 297.03125 556.191406 C 297.03125 556.238281 297.03125 556.238281 297.03125 556.191406 C 297.273438 556.285156 297.511719 556.335938 297.75 556.382812 C 298.082031 556.429688 298.371094 556.476562 298.703125 556.527344 C 299.183594 556.527344 299.707031 556.574219 300.183594 556.574219 C 300.664062 556.527344 301.09375 556.527344 301.523438 556.429688 C 301.710938 556.429688 301.855469 556.429688 302.046875 556.382812 C 302.046875 556.382812 302.09375 556.382812 302.140625 556.382812 C 302.238281 556.335938 302.285156 556.335938 302.382812 556.335938 C 302.429688 556.335938 302.476562 556.285156 302.570312 556.285156 C 302.667969 556.238281 302.8125 556.238281 302.90625 556.191406 C 303.097656 556.144531 303.242188 556.097656 303.382812 556.046875 C 303.480469 556.046875 303.527344 556.046875 303.574219 556 C 303.621094 556 303.671875 556 303.71875 556 C 303.910156 555.90625 304.148438 555.808594 304.339844 555.761719 C 304.578125 555.667969 304.769531 555.570312 304.960938 555.476562 C 305.007812 555.476562 305.007812 555.476562 305.054688 555.425781 C 305.101562 555.425781 305.152344 555.425781 305.199219 555.378906 C 305.292969 555.332031 305.390625 555.285156 305.484375 555.238281 C 305.769531 555.09375 306.011719 554.949219 306.25 554.808594 C 306.34375 554.757812 306.390625 554.710938 306.441406 554.664062 C 306.488281 554.664062 306.535156 554.617188 306.582031 554.617188 C 306.773438 554.472656 306.964844 554.378906 307.15625 554.234375 L 307.25 554.089844 L 576.085938 358.679688 C 580.527344 355.433594 582.246094 349.65625 580.335938 344.5 L 543.757812 247.058594 C 543.710938 246.960938 543.664062 246.820312 543.664062 246.722656 L 470.316406 51.167969 C 468.503906 46.441406 464.0625 43.292969 459 43.242188 Z M 92.949219 263.242188 L 195.707031 263.242188 L 267.285156 483.429688 Z M 404.183594 263.242188 L 506.941406 263.242188 L 332.605469 483.429688 Z M 71.507812 275.558594 L 235.003906 482.046875 L 45.722656 344.40625 Z M 528.382812 275.558594 L 554.167969 344.40625 L 364.886719 482.046875 Z M 528.382812 275.558594 " fill-opacity="1" fill-rule="nonzero"/></svg>